<svg id="Layer_1" data-name="Layer 1" xmlns="http://www.w3.org/2000/svg" viewBox="0 0 512 512"><defs><style>.cls-1{fill:#f0f0f0;}</style></defs><title>location</title><path class="cls-1" d="M270.67,157.92l-.14.1V297.2l24.85-14.91a67.51,67.51,0,0,1-.9-10.61A68.44,68.44,0,0,1,321,217.81V125.39Z"/><circle class="cls-1" cx="363.25" cy="271.04" r="14.42"/><polygon class="cls-1" points="253.33 157.94 195.01 120.34 195.01 260.38 195.46 260.66 254.54 297.49 254.54 158.72 253.33 157.94"/><polygon class="cls-1" points="128 143.9 128 292.16 178.53 260.66 179.01 260.37 179.01 117.92 128 143.9"/><path class="cls-1" d="M256,0C114.61,0,0,114.61,0,256S114.61,512,256,512,512,397.39,512,256,397.39,0,256,0ZM429.5,290.05a67.22,67.22,0,0,1-2.41,7.18l-1.87,4.27-62,114.5L301.38,301.65l-1.51-3.41L262,321l-75-46.76L112,321V134.1L186.78,96l6.16,4H195v1.33l67,43.18L337,96V208.16a68.74,68.74,0,0,1,92.51,81.89Z"/><path class="cls-1" d="M363.25,218.91a52.83,52.83,0,0,0-50.85,66.87,55,55,0,0,0,1.76,5.26l1.57,3.55,47.5,87.79,47.59-87.93,1.61-3.67c.51-1.29,1.12-3.12,1.65-5a52.77,52.77,0,0,0-50.83-66.87Zm0,82.55A30.42,30.42,0,1,1,393.66,271,30.42,30.42,0,0,1,363.25,301.46Z"/></svg>